<?xml version="1.0" encoding="UTF-8" standalone="no"?>
<!-- Created with Inkscape (http://www.inkscape.org/) -->

<svg
   xmlns:dc="http://purl.org/dc/elements/1.1/"
   xmlns:cc="http://creativecommons.org/ns#"
   xmlns:rdf="http://www.w3.org/1999/02/22-rdf-syntax-ns#"
   xmlns:svg="http://www.w3.org/2000/svg"
   xmlns="http://www.w3.org/2000/svg"
   xmlns:sodipodi="http://sodipodi.sourceforge.net/DTD/sodipodi-0.dtd"
   xmlns:inkscape="http://www.inkscape.org/namespaces/inkscape"
   version="1.1"
   id="svg109580"
   xml:space="preserve"
   width="800"
   height="800"
   viewBox="0 0 800 800"
   sodipodi:docname="logo-custom-object-publicdomainvectors.org.svg"
   inkscape:version="0.92.4 (5da689c313, 2019-01-14)"><metadata
     id="metadata109586"><rdf:RDF><cc:Work
         rdf:about=""><dc:format>image/svg+xml</dc:format><dc:type
           rdf:resource="http://purl.org/dc/dcmitype/StillImage" /><dc:title></dc:title></cc:Work></rdf:RDF></metadata><defs
     id="defs109584"><clipPath
       clipPathUnits="userSpaceOnUse"
       id="clipPath109596"><path
         d="M 0,600 H 600 V 0 H 0 Z"
         id="path109594"
         inkscape:connector-curvature="0" /></clipPath><radialGradient
       fx="0"
       fy="0"
       cx="0"
       cy="0"
       r="1"
       gradientUnits="userSpaceOnUse"
       gradientTransform="matrix(31.299454,66.933395,-150.83966,70.492218,191.63672,228.94824)"
       spreadMethod="pad"
       id="radialGradient109616"><stop
         style="stop-opacity:1;stop-color:#fff200"
         offset="0"
         id="stop109610" /><stop
         style="stop-opacity:1;stop-color:#ed1c24"
         offset="0.47"
         id="stop109612" /><stop
         style="stop-opacity:1;stop-color:#af242c"
         offset="1"
         id="stop109614" /></radialGradient><radialGradient
       fx="0"
       fy="0"
       cx="0"
       cy="0"
       r="1"
       gradientUnits="userSpaceOnUse"
       gradientTransform="matrix(73.626999,-6.3864746,-14.369583,-165.8204,147.13428,306.01807)"
       spreadMethod="pad"
       id="radialGradient109638"><stop
         style="stop-opacity:1;stop-color:#fff200"
         offset="0"
         id="stop109632" /><stop
         style="stop-opacity:1;stop-color:#ed1c24"
         offset="0.47"
         id="stop109634" /><stop
         style="stop-opacity:1;stop-color:#af242c"
         offset="1"
         id="stop109636" /></radialGradient><radialGradient
       fx="0"
       fy="0"
       cx="0"
       cy="0"
       r="1"
       gradientUnits="userSpaceOnUse"
       gradientTransform="matrix(73.627151,6.3864899,-14.369614,165.82075,147.13818,383.87158)"
       spreadMethod="pad"
       id="radialGradient109660"><stop
         style="stop-opacity:1;stop-color:#fff200"
         offset="0"
         id="stop109654" /><stop
         style="stop-opacity:1;stop-color:#ed1c24"
         offset="0.47"
         id="stop109656" /><stop
         style="stop-opacity:1;stop-color:#af242c"
         offset="1"
         id="stop109658" /></radialGradient><radialGradient
       fx="0"
       fy="0"
       cx="0"
       cy="0"
       r="1"
       gradientUnits="userSpaceOnUse"
       gradientTransform="matrix(31.299881,-66.934296,-150.84172,-70.493179,191.6333,460.94727)"
       spreadMethod="pad"
       id="radialGradient109682"><stop
         style="stop-opacity:1;stop-color:#fff200"
         offset="0"
         id="stop109676" /><stop
         style="stop-opacity:1;stop-color:#ed1c24"
         offset="0.47"
         id="stop109678" /><stop
         style="stop-opacity:1;stop-color:#af242c"
         offset="1"
         id="stop109680" /></radialGradient><radialGradient
       fx="0"
       fy="0"
       cx="0"
       cy="0"
       r="1"
       gradientUnits="userSpaceOnUse"
       gradientTransform="matrix(42.327621,-60.572281,136.42447,95.328384,259.05762,499.87451)"
       spreadMethod="pad"
       id="radialGradient109704"><stop
         style="stop-opacity:1;stop-color:#fff200"
         offset="0"
         id="stop109698" /><stop
         style="stop-opacity:1;stop-color:#ed1c24"
         offset="0.47"
         id="stop109700" /><stop
         style="stop-opacity:1;stop-color:#af242c"
         offset="1"
         id="stop109702" /></radialGradient><radialGradient
       fx="0"
       fy="0"
       cx="0"
       cy="0"
       r="1"
       gradientUnits="userSpaceOnUse"
       gradientTransform="matrix(-42.327484,-60.572098,-136.42406,95.328094,348.05664,499.87646)"
       spreadMethod="pad"
       id="radialGradient109726"><stop
         style="stop-opacity:1;stop-color:#fff200"
         offset="0"
         id="stop109720" /><stop
         style="stop-opacity:1;stop-color:#ed1c24"
         offset="0.47"
         id="stop109722" /><stop
         style="stop-opacity:1;stop-color:#af242c"
         offset="1"
         id="stop109724" /></radialGradient><radialGradient
       fx="0"
       fy="0"
       cx="0"
       cy="0"
       r="1"
       gradientUnits="userSpaceOnUse"
       gradientTransform="matrix(-31.299972,-66.934494,150.84216,-70.493393,415.47852,460.94531)"
       spreadMethod="pad"
       id="radialGradient109748"><stop
         style="stop-opacity:1;stop-color:#fff200"
         offset="0"
         id="stop109742" /><stop
         style="stop-opacity:1;stop-color:#ed1c24"
         offset="0.47"
         id="stop109744" /><stop
         style="stop-opacity:1;stop-color:#af242c"
         offset="1"
         id="stop109746" /></radialGradient><radialGradient
       fx="0"
       fy="0"
       cx="0"
       cy="0"
       r="1"
       gradientUnits="userSpaceOnUse"
       gradientTransform="matrix(-73.626923,6.3864746,14.369568,165.82025,459.97852,383.87109)"
       spreadMethod="pad"
       id="radialGradient109770"><stop
         style="stop-opacity:1;stop-color:#fff200"
         offset="0"
         id="stop109764" /><stop
         style="stop-opacity:1;stop-color:#ed1c24"
         offset="0.47"
         id="stop109766" /><stop
         style="stop-opacity:1;stop-color:#af242c"
         offset="1"
         id="stop109768" /></radialGradient><radialGradient
       fx="0"
       fy="0"
       cx="0"
       cy="0"
       r="1"
       gradientUnits="userSpaceOnUse"
       gradientTransform="matrix(-73.627548,-6.3865356,14.36969,-165.82166,459.97461,306.021)"
       spreadMethod="pad"
       id="radialGradient109792"><stop
         style="stop-opacity:1;stop-color:#fff200"
         offset="0"
         id="stop109786" /><stop
         style="stop-opacity:1;stop-color:#ed1c24"
         offset="0.47"
         id="stop109788" /><stop
         style="stop-opacity:1;stop-color:#af242c"
         offset="1"
         id="stop109790" /></radialGradient><radialGradient
       fx="0"
       fy="0"
       cx="0"
       cy="0"
       r="1"
       gradientUnits="userSpaceOnUse"
       gradientTransform="matrix(-31.3004,66.935425,150.84422,70.494354,415.48047,228.94434)"
       spreadMethod="pad"
       id="radialGradient109814"><stop
         style="stop-opacity:1;stop-color:#fff200"
         offset="0"
         id="stop109808" /><stop
         style="stop-opacity:1;stop-color:#ed1c24"
         offset="0.47"
         id="stop109810" /><stop
         style="stop-opacity:1;stop-color:#af242c"
         offset="1"
         id="stop109812" /></radialGradient><radialGradient
       fx="0"
       fy="0"
       cx="0"
       cy="0"
       r="1"
       gradientUnits="userSpaceOnUse"
       gradientTransform="matrix(-42.327454,60.572037,-136.42392,-95.327988,348.05664,190.0166)"
       spreadMethod="pad"
       id="radialGradient109836"><stop
         style="stop-opacity:1;stop-color:#fff200"
         offset="0"
         id="stop109830" /><stop
         style="stop-opacity:1;stop-color:#ed1c24"
         offset="0.47"
         id="stop109832" /><stop
         style="stop-opacity:1;stop-color:#af242c"
         offset="1"
         id="stop109834" /></radialGradient><radialGradient
       fx="0"
       fy="0"
       cx="0"
       cy="0"
       r="1"
       gradientUnits="userSpaceOnUse"
       gradientTransform="matrix(42.327682,60.572372,136.42468,-95.328522,259.05713,190.01367)"
       spreadMethod="pad"
       id="radialGradient109858"><stop
         style="stop-opacity:1;stop-color:#fff200"
         offset="0"
         id="stop109852" /><stop
         style="stop-opacity:1;stop-color:#ed1c24"
         offset="0.47"
         id="stop109854" /><stop
         style="stop-opacity:1;stop-color:#af242c"
         offset="1"
         id="stop109856" /></radialGradient></defs><sodipodi:namedview
     pagecolor="#ffffff"
     bordercolor="#666666"
     borderopacity="1"
     objecttolerance="10"
     gridtolerance="10"
     guidetolerance="10"
     inkscape:pageopacity="0"
     inkscape:pageshadow="2"
     inkscape:window-width="797"
     inkscape:window-height="480"
     id="namedview109582"
     showgrid="false"
     inkscape:zoom="0.295"
     inkscape:cx="400"
     inkscape:cy="400"
     inkscape:window-x="0"
     inkscape:window-y="0"
     inkscape:window-maximized="0"
     inkscape:current-layer="g109588" /><g
     id="g109588"
     inkscape:groupmode="layer"
     inkscape:label="logo-custom-object-publicdomainvectors.org"
     transform="matrix(1.3333333,0,0,-1.3333333,0,800)"><g
       id="g109590"><g
         id="g109592"
         clip-path="url(#clipPath109596)"><g
           id="g109598"><g
             id="g109600"><g
               id="g109606"><g
                 id="g109608"><path
                   d="m 81.671,340.883 c 2.746,-18.798 13.321,-37.377 26.426,-53.614 14.259,-17.538 32.623,-34.342 49.549,-49.881 9.558,-8.845 18.696,-17.382 26.827,-25.552 8.659,-8.903 16.008,-17.234 21.051,-24.594 5.317,-7.535 8.209,-13.545 10.311,-18.846 2.345,-5.328 4.915,-11.162 5.98,-16.961 1.124,-7.555 11.738,-36.229 32.349,-38.692 18.246,-2.16 34.86,-0.87 48.464,1.32 8.425,1.465 -2.844,3.577 -8.443,6.45 -6.392,3.41 -8.669,10.065 -13.556,20.884 -5.483,12.294 -15.187,29.172 -33.569,49.212 -18.168,19.834 -42.22,40.074 -65.216,59.253 -20.64,17.324 -40.597,34.03 -55.803,51.568 -13.897,15.959 -24.443,33.931 -26.778,52.27 -2.678,18.863 -20.299,6.665 -17.592,-12.817"
                   style="fill:url(#radialGradient109616);stroke:none"
                   id="path109618"
                   inkscape:connector-curvature="0" /></g></g></g></g><g
           id="g109620"><g
             id="g109622"><g
               id="g109628"><g
                 id="g109630"><path
                   d="m 189.096,154.815 c -14.913,11.777 -25.713,30.233 -33.219,49.696 -8.053,21.125 -13.438,45.42 -18.432,67.849 -2.873,12.7 -5.697,24.887 -8.707,36.013 -3.382,11.947 -6.92,22.474 -10.78,30.522 -3.86,8.375 -7.623,13.891 -11.161,18.358 -3.44,4.69 -7.202,9.831 -11.698,13.657 -5.981,4.755 -25.517,28.278 -17.337,47.365 7.261,16.873 16.682,30.623 25.381,41.306 5.482,6.563 1.68,-4.257 1.358,-10.531 -0.234,-7.246 4.388,-12.548 11.307,-22.195 7.906,-10.891 17.679,-27.73 25.84,-53.672 8.092,-25.645 13.594,-56.6 18.706,-86.1 4.681,-26.534 9.176,-52.178 16.76,-74.113 6.87,-20.016 17.161,-38.134 31.869,-49.329 15.002,-11.743 -4.378,-20.914 -19.887,-8.826"
                   style="fill:url(#radialGradient109638);stroke:none"
                   id="path109640"
                   inkscape:connector-curvature="0" /></g></g></g></g><g
           id="g109642"><g
             id="g109644"><g
               id="g109650"><g
                 id="g109652"><path
                   d="m 189.096,535.072 c -14.904,-11.772 -25.713,-30.228 -33.219,-49.691 -8.053,-21.124 -13.428,-45.42 -18.422,-67.849 -2.883,-12.705 -5.707,-24.886 -8.717,-36.012 -3.382,-11.954 -6.92,-22.479 -10.77,-30.522 -3.87,-8.375 -7.633,-13.893 -11.171,-18.358 -3.44,-4.697 -7.202,-9.832 -11.698,-13.663 -5.981,-4.749 -25.507,-28.278 -17.337,-47.36 7.261,-16.873 16.682,-30.624 25.381,-41.305 5.482,-6.568 1.68,4.251 1.358,10.53 -0.234,7.247 4.388,12.544 11.317,22.189 7.906,10.898 17.669,27.737 25.83,53.674 8.092,25.649 13.594,56.6 18.706,86.1 4.681,26.538 9.176,52.182 16.76,74.118 6.87,20.01 17.161,38.129 31.879,49.329 14.992,11.742 -4.388,20.909 -19.897,8.82"
                   style="fill:url(#radialGradient109660);stroke:none"
                   id="path109662"
                   inkscape:connector-curvature="0" /></g></g></g></g><g
           id="g109664"><g
             id="g109666"><g
               id="g109672"><g
                 id="g109674"><path
                   d="m 81.671,349.01 c 2.737,18.798 13.321,37.376 26.426,53.614 14.259,17.537 32.613,34.342 49.54,49.881 9.567,8.845 18.705,17.382 26.836,25.552 8.659,8.903 16.008,17.234 21.042,24.593 5.326,7.535 8.218,13.545 10.32,18.847 2.345,5.327 4.915,11.156 5.98,16.961 1.124,7.555 11.728,36.233 32.349,38.696 18.246,2.15 34.86,0.86 48.464,-1.324 8.425,-1.466 -2.844,-3.582 -8.443,-6.445 -6.392,-3.421 -8.669,-10.071 -13.566,-20.89 C 275.137,536.201 265.442,519.318 247.06,499.288 228.892,479.449 204.84,459.214 181.844,440.03 161.204,422.707 141.247,406 126.041,388.458 112.144,372.504 101.598,354.536 99.253,336.192 96.585,317.33 78.955,329.532 81.671,349.01"
                   style="fill:url(#radialGradient109682);stroke:none"
                   id="path109684"
                   inkscape:connector-curvature="0" /></g></g></g></g><g
           id="g109686"><g
             id="g109688"><g
               id="g109694"><g
                 id="g109696"><path
                   d="m 410.981,539.133 c -17.65,7.021 -39.033,7.148 -59.644,3.929 -22.321,-3.592 -46.051,-11.083 -67.971,-17.978 -12.441,-3.855 -24.403,-7.506 -35.545,-10.452 -12.04,-3.049 -22.926,-5.248 -31.82,-5.932 -9.187,-0.841 -15.842,-0.347 -21.481,0.483 -5.786,0.64 -12.119,1.33 -17.679,3.308 -7.106,2.805 -37.245,7.956 -49.686,-8.668 -10.985,-14.718 -18.168,-29.759 -23.084,-42.63 -2.942,-8.033 4.525,0.669 9.802,4.085 6.157,3.831 13.057,2.473 24.872,1.295 13.39,-1.397 32.858,-1.436 59.401,4.466 26.259,5.82 55.813,16.531 83.92,26.852 25.312,9.211 49.774,18.148 72.564,22.546 20.767,4.056 41.603,4.202 58.657,-2.947 17.67,-7.11 15.921,14.254 -2.306,21.643"
                   style="fill:url(#radialGradient109704);stroke:none"
                   id="path109706"
                   inkscape:connector-curvature="0" /></g></g></g></g><g
           id="g109708"><g
             id="g109710"><g
               id="g109716"><g
                 id="g109718"><path
                   d="m 196.132,539.138 c 17.65,7.026 39.033,7.148 59.644,3.919 22.322,-3.582 46.051,-11.078 67.972,-17.963 12.44,-3.865 24.402,-7.506 35.544,-10.462 12.04,-3.049 22.928,-5.243 31.82,-5.932 9.187,-0.841 15.843,-0.347 21.482,0.493 5.785,0.63 12.118,1.325 17.679,3.303 7.105,2.8 37.245,7.956 49.686,-8.673 10.984,-14.718 18.187,-29.763 23.094,-42.63 2.931,-8.028 -4.535,0.674 -9.813,4.08 -6.157,3.836 -13.056,2.483 -24.872,1.31 -13.389,-1.397 -32.856,-1.441 -59.4,4.466 -26.26,5.81 -55.814,16.521 -83.92,26.847 -25.322,9.21 -49.775,18.138 -72.565,22.541 -20.767,4.056 -41.603,4.207 -58.657,-2.937 -17.67,-7.12 -15.921,14.249 2.306,21.638"
                   style="fill:url(#radialGradient109726);stroke:none"
                   id="path109728"
                   inkscape:connector-curvature="0" /></g></g></g></g><g
           id="g109730"><g
             id="g109732"><g
               id="g109738"><g
                 id="g109740"><path
                   d="m 525.442,349.004 c -2.746,18.799 -13.321,37.382 -26.426,53.62 -14.269,17.537 -32.622,34.337 -49.549,49.876 -9.558,8.845 -18.696,17.381 -26.826,25.557 -8.66,8.903 -16.009,17.229 -21.051,24.588 -5.318,7.54 -8.21,13.55 -10.311,18.852 -2.345,5.327 -4.916,11.156 -5.981,16.961 -1.124,7.555 -11.737,36.233 -32.349,38.696 -18.246,2.15 -34.86,0.86 -48.464,-1.324 -8.424,-1.471 2.844,-3.582 8.444,-6.45 6.391,-3.416 8.669,-10.071 13.555,-20.89 5.483,-12.294 15.187,-29.172 33.571,-49.207 18.168,-19.834 42.218,-40.074 65.205,-59.253 20.65,-17.323 40.606,-34.035 55.813,-51.572 13.897,-15.954 24.442,-33.927 26.778,-52.266 2.677,-18.862 20.298,-6.665 17.591,12.812"
                   style="fill:url(#radialGradient109748);stroke:none"
                   id="path109750"
                   inkscape:connector-curvature="0" /></g></g></g></g><g
           id="g109752"><g
             id="g109754"><g
               id="g109760"><g
                 id="g109762"><path
                   d="m 418.018,535.072 c 14.914,-11.772 25.712,-30.228 33.218,-49.691 8.053,-21.124 13.438,-45.42 18.432,-67.849 2.873,-12.705 5.697,-24.886 8.708,-36.012 3.381,-11.949 6.919,-22.479 10.779,-30.522 3.861,-8.38 7.623,-13.893 11.16,-18.358 3.441,-4.692 7.204,-9.832 11.699,-13.659 5.981,-4.753 25.517,-28.277 17.338,-47.364 -7.262,-16.873 -16.683,-30.624 -25.381,-41.31 -5.483,-6.558 -1.681,4.256 -1.359,10.535 0.235,7.247 -4.387,12.544 -11.307,22.189 -7.907,10.898 -17.679,27.737 -25.839,53.679 -8.093,25.644 -13.595,56.595 -18.706,86.1 -4.681,26.533 -9.177,52.177 -16.761,74.113 -6.87,20.01 -17.161,38.134 -31.869,49.329 -15.002,11.742 4.378,20.909 19.888,8.82"
                   style="fill:url(#radialGradient109770);stroke:none"
                   id="path109772"
                   inkscape:connector-curvature="0" /></g></g></g></g><g
           id="g109774"><g
             id="g109776"><g
               id="g109782"><g
                 id="g109784"><path
                   d="m 418.018,154.82 c 14.904,11.772 25.712,30.228 33.218,49.691 8.053,21.125 13.428,45.42 18.422,67.849 2.883,12.704 5.707,24.887 8.718,36.008 3.381,11.952 6.919,22.484 10.77,30.527 3.87,8.375 7.632,13.891 11.169,18.358 3.441,4.69 7.204,9.831 11.699,13.657 5.981,4.755 25.507,28.278 17.338,47.365 -7.262,16.873 -16.683,30.623 -25.381,41.306 -5.483,6.567 -1.681,-4.257 -1.359,-10.531 0.235,-7.246 -4.387,-12.543 -11.317,-22.19 -7.906,-10.896 -17.669,-27.735 -25.829,-53.672 -8.093,-25.65 -13.595,-56.6 -18.706,-86.105 -4.681,-26.534 -9.177,-52.178 -16.761,-74.113 -6.87,-20.016 -17.161,-38.129 -31.879,-49.329 -14.992,-11.743 4.378,-20.91 19.898,-8.821"
                   style="fill:url(#radialGradient109792);stroke:none"
                   id="path109794"
                   inkscape:connector-curvature="0" /></g></g></g></g><g
           id="g109796"><g
             id="g109798"><g
               id="g109804"><g
                 id="g109806"><path
                   d="m 525.442,340.883 c -2.736,-18.798 -13.321,-37.377 -26.426,-53.614 -14.269,-17.538 -32.613,-34.342 -49.539,-49.881 -9.568,-8.845 -18.706,-17.382 -26.836,-25.552 -8.66,-8.908 -16.009,-17.234 -21.041,-24.594 -5.328,-7.535 -8.22,-13.545 -10.321,-18.846 -2.345,-5.333 -4.916,-11.162 -5.981,-16.966 -1.124,-7.55 -11.728,-36.234 -32.349,-38.697 -18.246,-2.15 -34.86,-0.86 -48.464,1.33 -8.424,1.465 2.844,3.577 8.444,6.45 6.391,3.41 8.669,10.065 13.565,20.884 5.483,12.294 15.177,29.172 33.561,49.207 18.168,19.839 42.218,40.074 65.215,59.253 20.64,17.329 40.596,34.035 55.803,51.573 13.897,15.959 24.442,33.926 26.787,52.27 2.668,18.863 20.299,6.66 17.582,-12.817"
                   style="fill:url(#radialGradient109814);stroke:none"
                   id="path109816"
                   inkscape:connector-curvature="0" /></g></g></g></g><g
           id="g109818"><g
             id="g109820"><g
               id="g109826"><g
                 id="g109828"><path
                   d="m 196.132,150.76 c 17.65,-7.027 39.033,-7.155 59.644,-3.929 22.322,3.587 46.051,11.083 67.972,17.973 12.44,3.86 24.402,7.506 35.544,10.457 12.04,3.049 22.928,5.248 31.82,5.931 9.187,0.841 15.843,0.343 21.482,-0.488 5.785,-0.635 12.118,-1.329 17.679,-3.304 7.105,-2.804 37.245,-7.955 49.686,8.669 10.984,14.718 18.178,29.759 23.084,42.63 2.941,8.033 -4.525,-0.675 -9.803,-4.085 -6.157,-3.831 -13.056,-2.472 -24.872,-1.3 -13.389,1.398 -32.856,1.437 -59.4,-4.466 -26.26,-5.815 -55.814,-16.526 -83.92,-26.846 -25.322,-9.216 -49.775,-18.148 -72.565,-22.547 -20.767,-4.056 -41.603,-4.202 -58.657,2.942 -17.67,7.115 -15.921,-14.249 2.306,-21.637"
                   style="fill:url(#radialGradient109836);stroke:none"
                   id="path109838"
                   inkscape:connector-curvature="0" /></g></g></g></g><g
           id="g109840"><g
             id="g109842"><g
               id="g109848"><g
                 id="g109850"><path
                   d="m 410.981,150.755 c -17.65,-7.026 -39.033,-7.15 -59.644,-3.924 -22.321,3.587 -46.051,11.077 -67.971,17.968 -12.441,3.86 -24.403,7.506 -35.545,10.462 -12.04,3.044 -22.926,5.243 -31.82,5.927 -9.187,0.845 -15.842,0.347 -21.481,-0.489 -5.786,-0.635 -12.119,-1.324 -17.679,-3.303 -7.106,-2.8 -37.245,-7.956 -49.686,8.668 -10.985,14.723 -18.178,29.764 -23.084,42.635 -2.942,8.029 4.525,-0.675 9.802,-4.085 6.157,-3.831 13.057,-2.477 24.872,-1.304 13.39,1.397 32.858,1.441 59.401,-4.467 26.259,-5.81 55.813,-16.526 83.92,-26.846 25.322,-9.211 49.774,-18.143 72.564,-22.542 20.767,-4.056 41.603,-4.207 58.657,2.938 17.67,7.119 15.921,-14.249 -2.306,-21.638"
                   style="fill:url(#radialGradient109858);stroke:none"
                   id="path109860"
                   inkscape:connector-curvature="0" /></g></g></g></g></g></g></g></svg>