<svg xmlns="http://www.w3.org/2000/svg" version="1.1" xmlns:xlink="http://www.w3.org/1999/xlink" xmlns:svgjs="http://svgjs.dev/svgjs" viewBox="0 0 17.993444685611728 9.689385523996911"><g transform="matrix(1,0,0,1,1.0897704385089888,6.456109226112922)"><path d="M113 1516L813 1516Q930 1516 1028 1479.5Q1126 1443 1197 1381Q1268 1319 1308 1238Q1348 1157 1348 1069Q1348 963 1316.5 870.5Q1285 778 1219 710Q1153 642 1052 602.5Q951 563 813 563L602 563L602 274L741 274L741 0L113 0L113 274L270 274L270 1241L113 1241ZM602 1241L602 834L739 834Q853 834 920 882Q987 930 987 1034Q987 1131 924 1186Q861 1241 739 1241Z" fill="#cccccc" transform="matrix(0.000732421875,0,0,-0.000732421875,0,1.1396484375)" fill-rule="nonzero"></path><path d="M1020 659L739 659L739 766Q698 766 664 760.5Q630 755 604.5 742Q579 729 561.5 706Q544 683 537 649L537 274L748 274L748 0L72 0L72 274L227 274L227 762L74 762L74 1036L535 1036L535 963Q579 998 634 1017Q689 1036 754 1036Q820 1036 890 1035Q960 1034 1020 1034Z" fill="#cccccc" transform="matrix(0.000732421875,0,0,-0.000732421875,1.03271484375,1.1396484375)" fill-rule="nonzero"></path><path d="M349 453L352 422Q363 377 389.5 343Q416 309 452 286Q488 263 532 251.5Q576 240 621 240Q666 240 706.5 245.5Q747 251 785 260.5Q823 270 859 282.5Q895 295 932 309L1042 104Q985 69 937.5 44.5Q890 20 842 4Q794 -12 740 -19.5Q686 -27 614 -27Q479 -27 374 17.5Q269 62 197.5 138Q126 214 88.5 316Q51 418 51 532Q51 646 90.5 746Q130 846 202 920.5Q274 995 374 1038Q474 1081 596 1081Q718 1081 812.5 1040.5Q907 1000 972 928.5Q1037 857 1072 760.5Q1107 664 1110 553Q1113 528 1113.5 503.5Q1114 479 1112 453ZM588 831Q532 831 492.5 817.5Q453 804 426 780.5Q399 757 383 727Q367 697 358 664L791 664Q784 698 771 728Q758 758 735 781Q712 804 676.5 817.5Q641 831 588 831Z" fill="#cccccc" transform="matrix(0.000732421875,0,0,-0.000732421875,1.85302734375,1.1396484375)" fill-rule="nonzero"></path><path d="M693 1556L1146 1556L1146 274L1348 274L1348 0L838 0L838 40Q784 12 727.5 -4Q671 -20 613 -20Q494 -20 394.5 22.5Q295 65 223.5 139Q152 213 112 312.5Q72 412 72 526Q72 640 111.5 738.5Q151 837 221.5 910Q292 983 390.5 1025Q489 1067 607 1067Q672 1067 729 1054.5Q786 1042 838 1019L838 1282L693 1282ZM630 256Q696 258 749.5 290Q803 322 838 374L838 679Q803 732 747.5 761.5Q692 791 630 790Q578 791 532.5 772Q487 753 452.5 718Q418 683 398 634Q378 585 378 523Q378 462 398 412.5Q418 363 452.5 328.5Q487 294 532.5 276Q578 258 630 256Z" fill="#cccccc" transform="matrix(0.000732421875,0,0,-0.000732421875,2.72900390625,1.1396484375)" fill-rule="nonzero"></path><path d="M349 453L352 422Q363 377 389.5 343Q416 309 452 286Q488 263 532 251.5Q576 240 621 240Q666 240 706.5 245.5Q747 251 785 260.5Q823 270 859 282.5Q895 295 932 309L1042 104Q985 69 937.5 44.5Q890 20 842 4Q794 -12 740 -19.5Q686 -27 614 -27Q479 -27 374 17.5Q269 62 197.5 138Q126 214 88.5 316Q51 418 51 532Q51 646 90.5 746Q130 846 202 920.5Q274 995 374 1038Q474 1081 596 1081Q718 1081 812.5 1040.5Q907 1000 972 928.5Q1037 857 1072 760.5Q1107 664 1110 553Q1113 528 1113.5 503.5Q1114 479 1112 453ZM588 831Q532 831 492.5 817.5Q453 804 426 780.5Q399 757 383 727Q367 697 358 664L791 664Q784 698 771 728Q758 758 735 781Q712 804 676.5 817.5Q641 831 588 831Z" fill="#cccccc" transform="matrix(0.000732421875,0,0,-0.000732421875,3.76171875,1.1396484375)" fill-rule="nonzero"></path><path d="M856 678Q813 732 760 759.5Q707 787 635 783Q577 787 529.5 767Q482 747 447.5 711Q413 675 394 625.5Q375 576 375 514Q375 459 395 410Q415 361 449.5 325.5Q484 290 531.5 270Q579 250 635 246Q682 250 720.5 265.5Q759 281 789 305.5Q819 330 840.5 360.5Q862 391 874 418L1149 342Q1132 282 1090.5 217Q1049 152 982.5 98.5Q916 45 824.5 10Q733 -25 616 -25Q497 -25 397 18.5Q297 62 225 137Q153 212 112.5 313Q72 414 72 530Q72 645 113.5 743.5Q155 842 228 915.5Q301 989 401.5 1030Q502 1071 620 1067Q704 1071 783 1048Q862 1025 933 979L1132 979L1132 678Z" fill="#cccccc" transform="matrix(0.000732421875,0,0,-0.000732421875,4.6376953125,1.1396484375)" fill-rule="nonzero"></path><path d="M72 522Q72 635 113 734Q154 833 227 907Q300 981 401 1024Q502 1067 623 1067Q744 1067 845.5 1024Q947 981 1020 907Q1093 833 1133.5 734Q1174 635 1174 522Q1174 409 1134.5 309.5Q1095 210 1022.5 135.5Q950 61 848.5 18Q747 -25 623 -25Q498 -25 396.5 18Q295 61 223 135Q151 209 111.5 308.5Q72 408 72 522ZM371 522Q371 463 391 413.5Q411 364 445.5 328Q480 292 525.5 272Q571 252 623 252Q676 252 721.5 271.5Q767 291 800.5 327Q834 363 853 412.5Q872 462 872 522Q872 584 853 634Q834 684 800.5 719Q767 754 721.5 772.5Q676 791 623 790Q571 791 525.5 772.5Q480 754 445.5 719Q411 684 391 634Q371 584 371 522Z" fill="#cccccc" transform="matrix(0.000732421875,0,0,-0.000732421875,5.50927734375,1.1396484375)" fill-rule="nonzero"></path><path d="M741 719Q741 743 725.5 765Q710 787 680 803.5Q650 820 606.5 830Q563 840 508 840Q487 840 463 836.5Q439 833 418.5 824Q398 815 384.5 799.5Q371 784 371 760Q371 748 374.5 737Q378 726 388 716Q398 706 415.5 697.5Q433 689 461 684L649 647Q751 627 820 597Q889 567 931 527Q973 487 991.5 438Q1010 389 1010 332Q1010 243 968.5 176Q927 109 859.5 64.5Q792 20 707.5 -2.5Q623 -25 537 -25Q481 -25 435.5 -18Q390 -11 353.5 1Q317 13 288.5 29.5Q260 46 236 66L55 66L55 344L338 344L338 338Q339 309 356 287.5Q373 266 400.5 251Q428 236 463 228.5Q498 221 537 221Q627 221 668 244.5Q709 268 709 305Q709 334 689 354.5Q669 375 618 387L426 428Q245 463 153 544.5Q61 626 61 754Q61 829 96 890.5Q131 952 191 995.5Q251 1039 331.5 1063Q412 1087 504 1087Q567 1087 616 1079.5Q665 1072 704 1060Q743 1048 772.5 1031.5Q802 1015 825 997L999 997L999 719L741 719Z" fill="#cccccc" transform="matrix(0.000732421875,0,0,-0.000732421875,6.428466796875,1.1396484375)" fill-rule="nonzero"></path><path d="M143 1516L635 1516L635 1343L483 1343L483 172L1006 172Q1022 172 1038 179.5Q1054 187 1067 199Q1080 211 1088 226.5Q1096 242 1096 258L1096 449L1286 449L1286 0L143 0L143 172L287 172L287 1343L143 1343Z" fill="#cccccc" transform="matrix(0.00030517578125,0,0,-0.00030517578125,0,2.01661376953125)" fill-rule="nonzero"></path><path d="M143 1516L1229 1516L1229 1087L1024 1087L1024 1343L483 1343L483 858L938 858L938 686L483 686L483 172L1024 172L1024 428L1229 428L1229 0L143 0L143 172L287 172L287 1343L143 1343Z" fill="#cccccc" transform="matrix(0.00030517578125,0,0,-0.00030517578125,0.3985595703125,2.01661376953125)" fill-rule="nonzero"></path><path d="M1040 172L1166 172L1046 516L463 516L346 172L502 172L502 0L10 0L10 172L142 172L614 1516L909 1516L1380 172L1532 172L1532 0L1040 0ZM520 682L988 682L752 1360Z" fill="#cccccc" transform="matrix(0.00030517578125,0,0,-0.00030517578125,0.7940673828125,2.01661376953125)" fill-rule="nonzero"></path><path d="M143 1516L707 1516Q811 1516 905 1489Q999 1462 1080 1413Q1161 1364 1227 1295.5Q1293 1227 1339.5 1143Q1386 1059 1411 962.5Q1436 866 1436 762Q1436 656 1411 559Q1386 462 1339.5 377Q1293 292 1227 222.5Q1161 153 1080 103.5Q999 54 905 27Q811 0 707 0L143 0L143 172L287 172L287 1343L143 1343ZM483 1343L483 172L719 172Q824 172 916.5 218Q1009 264 1078 343.5Q1147 423 1187 530.5Q1227 638 1227 762Q1227 884 1187 990Q1147 1096 1078 1174.5Q1009 1253 916.5 1298Q824 1343 719 1343Z" fill="#cccccc" transform="matrix(0.00030517578125,0,0,-0.00030517578125,1.2677001953125,2.01661376953125)" fill-rule="nonzero"></path><path d="M0 0Q0 0 0 0Q0 0 0 0Z" fill="#cccccc" transform="matrix(0.00030517578125,0,0,-0.00030517578125,1.73065185546875,2.01661376953125)" fill-rule="nonzero"></path><path d="M453 172L592 172L592 1352L246 1352L246 1116L41 1116L41 1516L1393 1516L1393 1116L1188 1116L1188 1352L788 1352L788 172L944 172L944 0L453 0Z" fill="#cccccc" transform="matrix(0.00030517578125,0,0,-0.00030517578125,1.87042236328125,2.01661376953125)" fill-rule="nonzero"></path><path d="M1208 1516L1700 1516L1700 1344L1556 1344L1556 172L1700 172L1700 0L1208 0L1208 172L1360 172L1360 717L483 717L483 172L635 172L635 0L143 0L143 172L287 172L287 1344L143 1344L143 1516L635 1516L635 1344L483 1344L483 885L1360 885L1360 1344L1208 1344Z" fill="#cccccc" transform="matrix(0.00030517578125,0,0,-0.00030517578125,2.31109619140625,2.01661376953125)" fill-rule="nonzero"></path><path d="M143 1516L1229 1516L1229 1087L1024 1087L1024 1343L483 1343L483 858L938 858L938 686L483 686L483 172L1024 172L1024 428L1229 428L1229 0L143 0L143 172L287 172L287 1343L143 1343Z" fill="#cccccc" transform="matrix(0.00030517578125,0,0,-0.00030517578125,2.8765869140625,2.01661376953125)" fill-rule="nonzero"></path><path d="M0 0Q0 0 0 0Q0 0 0 0Z" fill="#cccccc" transform="matrix(0.00030517578125,0,0,-0.00030517578125,3.2720947265625,2.01661376953125)" fill-rule="nonzero"></path><path d="M143 1516L1229 1516L1229 1087L1024 1087L1024 1343L483 1343L483 858L938 858L938 686L483 686L483 172L1024 172L1024 428L1229 428L1229 0L143 0L143 172L287 172L287 1343L143 1343Z" fill="#cccccc" transform="matrix(0.00030517578125,0,0,-0.00030517578125,3.411865234375,2.01661376953125)" fill-rule="nonzero"></path><path d="M1219 1116Q1152 1230 1041.5 1295Q931 1360 795 1360Q679 1360 583 1311Q487 1262 418.5 1179.5Q350 1097 312 988.5Q274 880 274 760Q274 618 316 508.5Q358 399 425.5 326.5Q493 254 586 205.5Q679 157 795 157Q953 157 1070 233.5Q1187 310 1270 485L1446 402Q1408 294 1317 193.5Q1226 93 1092.5 31.5Q959 -30 797 -30Q642 -30 512 28.5Q382 87 280.5 195Q179 303 125.5 451Q72 599 72 760Q72 922 125.5 1066Q179 1210 275.5 1316.5Q372 1423 505.5 1484.5Q639 1546 795 1546Q934 1546 1035 1506.5Q1136 1467 1206.5 1412.5Q1277 1358 1328 1294L1434 1294L1434 1116Z" fill="#cccccc" transform="matrix(0.00030517578125,0,0,-0.00030517578125,3.807373046875,2.01661376953125)" fill-rule="nonzero"></path><path d="M799 -30Q642 -30 512 28.5Q382 87 280 195Q178 303 125 451Q72 599 72 758Q72 922 125.5 1066Q179 1210 275.5 1316.5Q372 1423 505.5 1484.5Q639 1546 799 1546Q960 1546 1094 1484.5Q1228 1423 1324 1316.5Q1420 1210 1473 1066Q1526 922 1526 758Q1526 594 1472.5 450.5Q1419 307 1322.5 200Q1226 93 1092.5 31.5Q959 -30 799 -30ZM799 156Q918 156 1014.5 205Q1111 254 1179 336.5Q1247 419 1284 528Q1321 637 1321 758Q1321 882 1280.5 997.5Q1240 1113 1167.5 1193Q1095 1273 999 1316.5Q903 1360 799 1360Q680 1360 583 1311Q486 1262 418 1179.5Q350 1097 313 987.5Q276 878 276 758Q276 618 317 508.5Q358 399 425.5 326.5Q493 254 586.5 205Q680 156 799 156Z" fill="#cccccc" transform="matrix(0.00030517578125,0,0,-0.00030517578125,4.27093505859375,2.01661376953125)" fill-rule="nonzero"></path><path d="M1081 1516L1573 1516L1573 1343L1444 1343L1444 0L1188 0L483 1257L483 172L639 172L639 0L147 0L147 172L287 172L287 1343L143 1343L143 1518L551 1518L1243 273L1251 321L1251 1343L1081 1343Z" fill="#cccccc" transform="matrix(0.00030517578125,0,0,-0.00030517578125,4.7613525390625,2.01661376953125)" fill-rule="nonzero"></path><path d="M799 -30Q642 -30 512 28.5Q382 87 280 195Q178 303 125 451Q72 599 72 758Q72 922 125.5 1066Q179 1210 275.5 1316.5Q372 1423 505.5 1484.5Q639 1546 799 1546Q960 1546 1094 1484.5Q1228 1423 1324 1316.5Q1420 1210 1473 1066Q1526 922 1526 758Q1526 594 1472.5 450.5Q1419 307 1322.5 200Q1226 93 1092.5 31.5Q959 -30 799 -30ZM799 156Q918 156 1014.5 205Q1111 254 1179 336.5Q1247 419 1284 528Q1321 637 1321 758Q1321 882 1280.5 997.5Q1240 1113 1167.5 1193Q1095 1273 999 1316.5Q903 1360 799 1360Q680 1360 583 1311Q486 1262 418 1179.5Q350 1097 313 987.5Q276 878 276 758Q276 618 317 508.5Q358 399 425.5 326.5Q493 254 586.5 205Q680 156 799 156Z" fill="#cccccc" transform="matrix(0.00030517578125,0,0,-0.00030517578125,5.260009765625,2.01661376953125)" fill-rule="nonzero"></path><path d="M143 172L287 172L287 1325L143 1325L143 1516L623 1516L1104 207L1591 1516L2046 1516L2046 1325L1903 1325L1903 172L2046 172L2046 0L1554 0L1554 172L1716 172L1716 1336L1186 0L1016 0L479 1339L479 172L635 172L635 0L143 0Z" fill="#cccccc" transform="matrix(0.00030517578125,0,0,-0.00030517578125,5.75042724609375,2.01661376953125)" fill-rule="nonzero"></path><path d="M51 1516L543 1516L543 1343L399 1343L684 856L989 1343L831 1343L831 1516L1323 1516L1323 1343L1194 1343L768 697L768 172L924 172L924 0L432 0L432 172L571 172L571 702L169 1343L51 1343Z" fill="#cccccc" transform="matrix(0.00030517578125,0,0,-0.00030517578125,6.4215087890625,2.01661376953125)" fill-rule="nonzero"></path><path d="M96 121Q96 147 106.5 170.5Q117 194 135 211.5Q153 229 176.5 239.5Q200 250 227 250Q253 250 276.5 239.5Q300 229 317.5 211.5Q335 194 345.5 170.5Q356 147 356 121Q356 94 345.5 70Q335 46 317.5 27.5Q300 9 276.5 -1.5Q253 -12 227 -12Q200 -12 176.5 -1.5Q153 9 135 27.5Q117 46 106.5 70Q96 94 96 121Z" fill="#cccccc" transform="matrix(0.00030517578125,0,0,-0.00030517578125,6.77215576171875,2.01661376953125)" fill-rule="nonzero"></path><path d="M0 0Q0 0 0 0Q0 0 0 0Z" fill="#cccccc" transform="matrix(0.00030517578125,0,0,-0.00030517578125,6.91436767578125,2.01661376953125)" fill-rule="nonzero"></path><path d="M143 1516L635 1516L635 1343L483 1343L483 172L1006 172Q1022 172 1038 179.5Q1054 187 1067 199Q1080 211 1088 226.5Q1096 242 1096 258L1096 449L1286 449L1286 0L143 0L143 172L287 172L287 1343L143 1343Z" fill="#cccccc" transform="matrix(0.00030517578125,0,0,-0.00030517578125,7.05413818359375,2.01661376953125)" fill-rule="nonzero"></path><path d="M143 1516L1229 1516L1229 1087L1024 1087L1024 1343L483 1343L483 858L938 858L938 686L483 686L483 172L1024 172L1024 428L1229 428L1229 0L143 0L143 172L287 172L287 1343L143 1343Z" fill="#cccccc" transform="matrix(0.00030517578125,0,0,-0.00030517578125,7.45269775390625,2.01661376953125)" fill-rule="nonzero"></path><path d="M1040 172L1166 172L1046 516L463 516L346 172L502 172L502 0L10 0L10 172L142 172L614 1516L909 1516L1380 172L1532 172L1532 0L1040 0ZM520 682L988 682L752 1360Z" fill="#cccccc" transform="matrix(0.00030517578125,0,0,-0.00030517578125,7.84820556640625,2.01661376953125)" fill-rule="nonzero"></path><path d="M143 1516L707 1516Q811 1516 905 1489Q999 1462 1080 1413Q1161 1364 1227 1295.5Q1293 1227 1339.5 1143Q1386 1059 1411 962.5Q1436 866 1436 762Q1436 656 1411 559Q1386 462 1339.5 377Q1293 292 1227 222.5Q1161 153 1080 103.5Q999 54 905 27Q811 0 707 0L143 0L143 172L287 172L287 1343L143 1343ZM483 1343L483 172L719 172Q824 172 916.5 218Q1009 264 1078 343.5Q1147 423 1187 530.5Q1227 638 1227 762Q1227 884 1187 990Q1147 1096 1078 1174.5Q1009 1253 916.5 1298Q824 1343 719 1343Z" fill="#cccccc" transform="matrix(0.00030517578125,0,0,-0.00030517578125,8.32183837890625,2.01661376953125)" fill-rule="nonzero"></path><path d="M0 0Q0 0 0 0Q0 0 0 0Z" fill="#cccccc" transform="matrix(0.00030517578125,0,0,-0.00030517578125,8.7847900390625,2.01661376953125)" fill-rule="nonzero"></path><path d="M51 1516L543 1516L543 1343L399 1343L684 856L989 1343L831 1343L831 1516L1323 1516L1323 1343L1194 1343L768 697L768 172L924 172L924 0L432 0L432 172L571 172L571 702L169 1343L51 1343Z" fill="#cccccc" transform="matrix(0.00030517578125,0,0,-0.00030517578125,8.924560546875,2.01661376953125)" fill-rule="nonzero"></path><path d="M799 -30Q642 -30 512 28.5Q382 87 280 195Q178 303 125 451Q72 599 72 758Q72 922 125.5 1066Q179 1210 275.5 1316.5Q372 1423 505.5 1484.5Q639 1546 799 1546Q960 1546 1094 1484.5Q1228 1423 1324 1316.5Q1420 1210 1473 1066Q1526 922 1526 758Q1526 594 1472.5 450.5Q1419 307 1322.5 200Q1226 93 1092.5 31.5Q959 -30 799 -30ZM799 156Q918 156 1014.5 205Q1111 254 1179 336.5Q1247 419 1284 528Q1321 637 1321 758Q1321 882 1280.5 997.5Q1240 1113 1167.5 1193Q1095 1273 999 1316.5Q903 1360 799 1360Q680 1360 583 1311Q486 1262 418 1179.5Q350 1097 313 987.5Q276 878 276 758Q276 618 317 508.5Q358 399 425.5 326.5Q493 254 586.5 205Q680 156 799 156Z" fill="#cccccc" transform="matrix(0.00030517578125,0,0,-0.00030517578125,9.3408203125,2.01661376953125)" fill-rule="nonzero"></path><path d="M113 1516L604 1516L604 1343L449 1343L449 637Q449 510 477.5 420.5Q506 331 556.5 274.5Q607 218 676.5 192Q746 166 829 166Q915 166 987 189Q1059 212 1110.5 266.5Q1162 321 1190.5 411.5Q1219 502 1219 637L1219 1343L1055 1343L1055 1516L1546 1516L1546 1343L1411 1343L1411 659Q1411 495 1365.5 368Q1320 241 1241 155Q1162 69 1055 24.5Q948 -20 825 -20Q705 -20 600.5 24Q496 68 418.5 153Q341 238 296.5 360.5Q252 483 252 641L252 1343L113 1343Z" fill="#cccccc" transform="matrix(0.00030517578125,0,0,-0.00030517578125,9.83123779296875,2.01661376953125)" fill-rule="nonzero"></path><path d="M143 1516L774 1516Q875 1516 960.5 1489.5Q1046 1463 1108.5 1411.5Q1171 1360 1206 1283Q1241 1206 1241 1106Q1241 1049 1220.5 993.5Q1200 938 1163.5 890.5Q1127 843 1077 806Q1027 769 968 749Q993 738 1018.5 717.5Q1044 697 1066.5 667.5Q1089 638 1107.5 600.5Q1126 563 1137 520L1221 190L1352 190L1354 0L1059 0L946 461Q915 585 851.5 643.5Q788 702 678 702L483 702L483 172L635 172L635 0L143 0L143 172L287 172L287 1343L143 1343ZM483 1343L483 866L774 866Q831 866 878.5 881Q926 896 960.5 926Q995 956 1014.5 1000.5Q1034 1045 1034 1104Q1034 1217 966 1280Q898 1343 750 1343Z" fill="#cccccc" transform="matrix(0.00030517578125,0,0,-0.00030517578125,10.30731201171875,2.01661376953125)" fill-rule="nonzero"></path><path d="M0 0Q0 0 0 0Q0 0 0 0Z" fill="#cccccc" transform="matrix(0.00030517578125,0,0,-0.00030517578125,10.75531005859375,2.01661376953125)" fill-rule="nonzero"></path><path d="M143 1516L627 1516L627 1343L483 1343L483 172L627 172L627 0L143 0L143 172L287 172L287 1343L143 1343Z" fill="#cccccc" transform="matrix(0.00030517578125,0,0,-0.00030517578125,10.89508056640625,2.01661376953125)" fill-rule="nonzero"></path><path d="M1081 1516L1573 1516L1573 1343L1444 1343L1444 0L1188 0L483 1257L483 172L639 172L639 0L147 0L147 172L287 172L287 1343L143 1343L143 1518L551 1518L1243 273L1251 321L1251 1343L1081 1343Z" fill="#cccccc" transform="matrix(0.00030517578125,0,0,-0.00030517578125,11.13311767578125,2.01661376953125)" fill-rule="nonzero"></path><path d="M1013 1516L1505 1516L1505 1343L1374 1343L883 0L608 0L124 1343L-10 1343L-10 1516L482 1516L482 1343L350 1343L739 174L1156 1343L1013 1343Z" fill="#cccccc" transform="matrix(0.00030517578125,0,0,-0.00030517578125,11.63177490234375,2.01661376953125)" fill-rule="nonzero"></path><path d="M143 1516L1229 1516L1229 1087L1024 1087L1024 1343L483 1343L483 858L938 858L938 686L483 686L483 172L1024 172L1024 428L1229 428L1229 0L143 0L143 172L287 172L287 1343L143 1343Z" fill="#cccccc" transform="matrix(0.00030517578125,0,0,-0.00030517578125,12.0880126953125,2.01661376953125)" fill-rule="nonzero"></path><path d="M920 1104Q920 1192 888 1236Q856 1280 817.5 1303.5Q779 1327 733 1339.5Q687 1352 641 1352Q565 1352 508 1334.5Q451 1317 413.5 1287Q376 1257 357 1217Q338 1177 338 1133Q338 1067 361.5 1026.5Q385 986 421 961.5Q457 937 500.5 923Q544 909 584 895L786 829Q877 800 946.5 763Q1016 726 1063 675.5Q1110 625 1134.5 559Q1159 493 1159 406Q1159 312 1120.5 232Q1082 152 1013 93Q944 34 848.5 0.5Q753 -33 639 -33Q522 -33 439 -6.5Q356 20 299.5 64.5Q243 109 209 166Q175 223 156 283L80 283L80 455L332 455Q332 344 355.5 298Q379 252 421 221.5Q463 191 521 175.5Q579 160 649 160Q717 160 771.5 176Q826 192 864.5 222.5Q903 253 923.5 296.5Q944 340 944 395Q944 456 918.5 498.5Q893 541 853 571Q813 601 765.5 620Q718 639 674 653L455 715Q383 737 323.5 771Q264 805 221.5 854Q179 903 156 968.5Q133 1034 133 1120Q133 1207 167 1283Q201 1359 267 1416Q333 1473 428.5 1505.5Q524 1538 647 1538Q728 1538 796.5 1519Q865 1500 920.5 1465.5Q976 1431 1018.5 1382.5Q1061 1334 1090 1276L1165 1276L1165 1104L920 1104Z" fill="#cccccc" transform="matrix(0.00030517578125,0,0,-0.00030517578125,12.4835205078125,2.01661376953125)" fill-rule="nonzero"></path><path d="M453 172L592 172L592 1352L246 1352L246 1116L41 1116L41 1516L1393 1516L1393 1116L1188 1116L1188 1352L788 1352L788 172L944 172L944 0L453 0Z" fill="#cccccc" transform="matrix(0.00030517578125,0,0,-0.00030517578125,12.8558349609375,2.01661376953125)" fill-rule="nonzero"></path><path d="M143 172L287 172L287 1325L143 1325L143 1516L623 1516L1104 207L1591 1516L2046 1516L2046 1325L1903 1325L1903 172L2046 172L2046 0L1554 0L1554 172L1716 172L1716 1336L1186 0L1016 0L479 1339L479 172L635 172L635 0L143 0Z" fill="#cccccc" transform="matrix(0.00030517578125,0,0,-0.00030517578125,13.2965087890625,2.01661376953125)" fill-rule="nonzero"></path><path d="M143 1516L1229 1516L1229 1087L1024 1087L1024 1343L483 1343L483 858L938 858L938 686L483 686L483 172L1024 172L1024 428L1229 428L1229 0L143 0L143 172L287 172L287 1343L143 1343Z" fill="#cccccc" transform="matrix(0.00030517578125,0,0,-0.00030517578125,13.96759033203125,2.01661376953125)" fill-rule="nonzero"></path><path d="M1081 1516L1573 1516L1573 1343L1444 1343L1444 0L1188 0L483 1257L483 172L639 172L639 0L147 0L147 172L287 172L287 1343L143 1343L143 1518L551 1518L1243 273L1251 321L1251 1343L1081 1343Z" fill="#cccccc" transform="matrix(0.00030517578125,0,0,-0.00030517578125,14.36309814453125,2.01661376953125)" fill-rule="nonzero"></path><path d="M453 172L592 172L592 1352L246 1352L246 1116L41 1116L41 1516L1393 1516L1393 1116L1188 1116L1188 1352L788 1352L788 172L944 172L944 0L453 0Z" fill="#cccccc" transform="matrix(0.00030517578125,0,0,-0.00030517578125,14.86175537109375,2.01661376953125)" fill-rule="nonzero"></path><path d="M920 1104Q920 1192 888 1236Q856 1280 817.5 1303.5Q779 1327 733 1339.5Q687 1352 641 1352Q565 1352 508 1334.5Q451 1317 413.5 1287Q376 1257 357 1217Q338 1177 338 1133Q338 1067 361.5 1026.5Q385 986 421 961.5Q457 937 500.5 923Q544 909 584 895L786 829Q877 800 946.5 763Q1016 726 1063 675.5Q1110 625 1134.5 559Q1159 493 1159 406Q1159 312 1120.5 232Q1082 152 1013 93Q944 34 848.5 0.5Q753 -33 639 -33Q522 -33 439 -6.5Q356 20 299.5 64.5Q243 109 209 166Q175 223 156 283L80 283L80 455L332 455Q332 344 355.5 298Q379 252 421 221.5Q463 191 521 175.5Q579 160 649 160Q717 160 771.5 176Q826 192 864.5 222.5Q903 253 923.5 296.5Q944 340 944 395Q944 456 918.5 498.5Q893 541 853 571Q813 601 765.5 620Q718 639 674 653L455 715Q383 737 323.5 771Q264 805 221.5 854Q179 903 156 968.5Q133 1034 133 1120Q133 1207 167 1283Q201 1359 267 1416Q333 1473 428.5 1505.5Q524 1538 647 1538Q728 1538 796.5 1519Q865 1500 920.5 1465.5Q976 1431 1018.5 1382.5Q1061 1334 1090 1276L1165 1276L1165 1104L920 1104Z" fill="#cccccc" transform="matrix(0.00030517578125,0,0,-0.00030517578125,15.30242919921875,2.01661376953125)" fill-rule="nonzero"></path><path d="M96 121Q96 147 106.5 170.5Q117 194 135 211.5Q153 229 176.5 239.5Q200 250 227 250Q253 250 276.5 239.5Q300 229 317.5 211.5Q335 194 345.5 170.5Q356 147 356 121Q356 94 345.5 70Q335 46 317.5 27.5Q300 9 276.5 -1.5Q253 -12 227 -12Q200 -12 176.5 -1.5Q153 9 135 27.5Q117 46 106.5 70Q96 94 96 121Z" fill="#cccccc" transform="matrix(0.00030517578125,0,0,-0.00030517578125,15.67474365234375,2.01661376953125)" fill-rule="nonzero"></path><g clip-path="url(&quot;#SvgjsClipPath1000&quot;)"><path d=" M 2.292979578947416 -4.33411640392449 L 3.070514225867962 -3.8851860675992653 L 3.342919370401392 -4.042456274030999 L 2.292979578947416 -4.648656816787957 L 2.292979578947416 -4.33411640392449 Z" fill="#002540" transform="matrix(1,0,0,1,0,0)" fill-rule="nonzero"></path><path d=" M 2.137811198756451 -4.33411640392449 L 2.137811198756451 -4.648656816787957 L 1.087871407302476 -4.042456274030999 L 1.3602765518359057 -3.8851860675992653 L 2.137811198756451 -4.33411640392449 Z" fill="#002540" transform="matrix(1,0,0,1,0,0)" fill-rule="nonzero"></path><path d=" M 2.2153953888519347 -5.366338787603933 L 0 -4.087257617257045 L 0 -1.5290811703468878 L 2.2153953888519347 -0.25001410621638165 L 4.430762565271106 -1.5290952765632695 L 4.430762565271106 -4.087257617257045 Z M 2.2153953888519347 -5.187189839565273 L 4.198009994984659 -4.04247038024738 L 2.2153953888519347 -2.897750920929487 L 0.2327525702864488 -4.042456274030999 Z M 2.292979578947417 -0.4739785036974684 L 2.292979578947417 -2.7634174223332546 L 4.275594185080141 -3.9081227754347667 L 4.275594185080141 -1.6186838567989805 Z M 0.1551824864073481 -1.6186838567989805 L 0.1551824864073481 -3.9081227754347667 L 2.1378111987564523 -2.7634174223332546 L 2.1378111987564523 -0.4739785036974684 Z" fill="#cccccc" transform="matrix(1,0,0,1,0,0)" fill-rule="nonzero"></path><path d=" M 3.6532279183505594 -4.042456274030999 L 2.2153953888519347 -4.872621214269044 L 0.7775487531369265 -4.042456274030999 L 2.2153953888519347 -3.2123054400093354 Z M 2.2153953888519347 -3.3914684942643762 L 1.5154308258104887 -3.7955974873635547 L 2.2153812826355512 -4.199726480462733 L 2.9153035270278522 -3.7955833811471735 C 2.6529984334232175 -3.6440826172152674 2.3736671366467164 -3.482834457764093 2.2153953888519347 -3.3914684942643762 Z M 2.1378111987564523 -4.648656816787957 L 2.1378111987564523 -4.334088191491728 L 1.360262445619524 -3.8851860675992653 L 1.087871407302476 -4.042456274030999 Z M 3.07051422586796 -3.8851860675992653 L 2.292979578947417 -4.33411640392449 L 2.292979578947417 -4.648685029220719 L 3.3429052641850134 -4.042484486463762 Z" fill="#cccccc" transform="matrix(1,0,0,1,0,0)" fill-rule="nonzero"></path><path d=" M 2.5653565110480834 -2.6061048972523775 L 2.5653565110480834 -0.9458032292090497 L 4.003217252979475 -1.7759681694470948 L 4.003217252979475 -3.436269837490422 Z M 2.7205248912390516 -1.7082442246019292 L 2.7205248912390516 -2.516530423233048 L 3.4204612418477325 -2.920659416332226 L 3.4204612418477325 -2.1123732177011076 Z M 3.575629622038697 -2.1123873239174884 L 3.575629622038697 -3.0102338903515555 L 3.8480347665721233 -3.1675040967832895 L 3.8480347665721233 -1.9551171174857545 Z M 2.720510785022668 -1.2145407574834213 L 2.720510785022668 -1.5291093827796511 L 3.498045431943215 -1.978039719104875 L 3.770450576476641 -1.8207554064567604 Z" fill="#cccccc" transform="matrix(1,0,0,1,0,0)" fill-rule="nonzero"></path><path d=" M 0.42751709985886954 -1.7759399570143328 L 1.8653637355738777 -0.9457750167762882 L 1.8653637355738777 -2.606076684819615 L 0.42751709985886954 -3.436269837490422 Z M 1.710195355382913 -1.5290811703468878 L 1.710195355382913 -1.2145125450506589 L 0.6602696701453183 -1.8206989815912356 L 0.9326748146787462 -1.9779832942393503 Z M 0.8550906245832675 -3.0102338903515555 L 0.8550906245832675 -2.112387323917488 L 0.582685480049836 -1.9551171174857545 L 0.582685480049836 -3.1675040967832895 Z M 1.710195355382913 -2.5165163170166664 L 1.710195355382913 -1.7082301183855475 L 1.0102590047742321 -2.112359111484726 L 1.0102590047742321 -2.920645310115845 Z" fill="#cccccc" transform="matrix(1,0,0,1,0,0)" fill-rule="nonzero"></path></g></g><defs><clipPath id="SvgjsClipPath1000"><path d=" M 0 -5.366338787603933 h 4.430776671487487 v 5.116338787603933 h -4.430776671487487 Z"></path></clipPath></defs></svg>